{"title":"Chappie 2015 720p HDCAM NEW VIDEO AND AUDIO x264 Pimp4003","uid":11748984,"size":2097849498,"categoryP":"video","categoryS":"movies","magnet":"?xt=urn:btih:6bfe84a86bc73c2d2905e116ba8305b6ca6d5a18&amp;dn=Chappie+2015+720p+HDCAM+NEW+VIDEO+AND+AUDIO+x264+Pimp4003&amp;tr=udp%3A%2F%2Ftracker.openbittorrent.com%3A80&amp;tr=udp%3A%2F%2Fopen.demonii.com%3A1337&amp;tr=udp%3A%2F%2Ftracker.coppersurfer.tk%3A6969&amp;tr=udp%3A%2F%2Fexodus.desync.com%3A6969","seeders":30,"leechers":0,"uploader":"shawnmurthy","files":1,"time":1426126010,"description":"NEW AUDIO AND VIDEO...I GOT TO ADMIN THIS CAME OUT VERY GOOD FOR MY FIRST COPY OF THIS MOVIE....I HAD ANOTHER VIDEO BEFORE I DINT UPLOAD IT CAUSE VIDEO SUCKED BUT THIS IS BETTER...DID THE USUAL ADJUSTED CONTRAST, BRIGHTENED THE DARK SCENES BUT NOT TOO MUCH BUT OTHER WISE IT WOULD LOOK CRAPPY...AUDIO IS GOOD AS WELL STOPPED THE ECHOING...CHECK THE SCREEN SHOT OUT...ENJOY ...PIMP4003 OUT\n\nSCREENSHOTS GO HERE...http://pimp4003DOTnet/torrents.php?id=6bfe84a86bc73c2d2905e116ba8305b6ca6d5a18\n\nI am looking for: Pre-Retail Supplier Unreleased DVD/BluRay/Web-Dls/R5/CAM/TS If you have something to offer, please contact ME: &lt;a class=&quot;__cf_email__&quot; href=&quot;/cdn-cgi/l/email-protection&quot; data-cfemail=&quot;54243d392460646467143c21273c39353d387a373b397a&quot;&gt;[email&amp;#160;protected]&lt;/a&gt;&lt;script cf-hash='f9e31' type=&quot;text/javascript&quot;&gt;\n/* &lt;![CDATA[ */!function(){try{var t=&quot;currentScript&quot;in document?document.currentScript:function(){for(var t=document.getElementsByTagName(&quot;script&quot;),e=t.length;e--;)if(t[e].getAttribute(&quot;cf-hash&quot;))return t[e]}();if(t&amp;&amp;t.previousSibling){var e,r,n,i,c=t.previousSibling,a=c.getAttribute(&quot;data-cfemail&quot;);if(a){for(e=&quot;&quot;,r=parseInt(a.substr(0,2),16),n=2;a.length-n;n+=2)i=parseInt(a.substr(n,2),16)^r,e+=String.fromCharCode(i);e=document.createTextNode(e),c.parentNode.replaceChild(e,c)}}}catch(u){}}();/* ]]&gt; */&lt;/script&gt; WE CAN WORK OUT A GREAT DEAL THAT WORKS OUT FOR EVERY PARTY\n &lt;a href=&quot;\nhttp://i.imgur.com/J3ny9bJ.jpg&quot; rel=&quot;nofollow&quot; target=&quot;_NEW&quot;&gt;\nhttp://i.imgur.com/J3ny9bJ.jpg&lt;/a&gt;\n &lt;a href=&quot;\nhttp://i.imgur.com/SpsuXOR.png&quot; rel=&quot;nofollow&quot; target=&quot;_NEW&quot;&gt;\nhttp://i.imgur.com/SpsuXOR.png&lt;/a&gt;\n\nPIMP THE ONE AND ONLY PIMPSTER.....PRESENTS\n\nfacebookDOTcom/OfficialPimp4003\n &lt;a href=&quot;\nhttp://i.imgur.com/cHdq8ct.jpg&quot; rel=&quot;nofollow&quot; target=&quot;_NEW&quot;&gt;\nhttp://i.imgur.com/cHdq8ct.jpg&lt;/a&gt;\n\nChappie 2015 720p HDCAM NEW VIDEO AND AUDIO x264 Pimp4003\n &lt;a href=&quot;\nhttp://www.imdb.com/title/tt1823672/&quot; rel=&quot;nofollow&quot; target=&quot;_NEW&quot;&gt;\nhttp://www.imdb.com/title/tt1823672/&lt;/a&gt;\n\nIn the near future, crime is patrolled by a mechanized police force. When one police droid, Chappie, is stolen and given new programming, he becomes the first robot with the ability to think and feel for himself.\n\nDirector: Neill Blomkamp\nWriters: Neill Blomkamp, Terri Tatchell\nStars: Sharlto Copley, Dev Patel, Hugh Jackman | See full cast and crew Â»\n\nVideo\nID                                       : 1\nFormat                                   : MPEG-4 Visual\nFormat profile                           : Simple@L3\nFormat settings, BVOP                    : No\nFormat settings, QPel                    : No\nFormat settings, GMC                     : No warppoints\nFormat settings, Matrix                  : Default (H.263)\nCodec ID                                 : 20\nDuration                                 : 1h 50mn\nBit rate                                 : 2 392 Kbps\nWidth                                    : 1 280 pixels\nHeight                                   : 536 pixels\nDisplay aspect ratio                     : 2.40:1\nFrame rate mode                          : Variable\nFrame rate                               : 59.940 fps\nMinimum frame rate                       : 59.916 fps\nMaximum frame rate                       : 60.157 fps\nColor space                              : YUV\nChroma subsampling                       : 4:2:0\nBit depth                                : 8 bits\nScan type                                : Progressive\nCompression mode                         : Lossy\nBits/(Pixel*Frame)                       : 0.058\nStream size                              : 1.85 GiB (95%)\nWriting library                          : ZJMedia MPEG Encoder\n\nAudio\nID                                       : 2\nFormat                                   : AAC\nFormat/Info                              : Advanced Audio Codec\nFormat profile                           : LC\nCodec ID                                 : 40\nDuration                                 : 1h 50mn\nBit rate mode                            : Variable\nBit rate                                 : 128 Kbps\nChannel(s)                               : 2 channels\nChannel positions                        : Front: L R\nSampling rate                            : 48.0 KHz\nCompression mode                         : Lossy\nStream size                              : 101 MiB (5%)","torrent":{"xt":"urn:btih:6bfe84a86bc73c2d2905e116ba8305b6ca6d5a18","amp;dn":"Chappie+2015+720p+HDCAM+NEW+VIDEO+AND+AUDIO+x264+Pimp4003","amp;tr":["udp%3A%2F%2Ftracker.openbittorrent.com%3A80","udp%3A%2F%2Fopen.demonii.com%3A1337","udp%3A%2F%2Ftracker.coppersurfer.tk%3A6969","udp%3A%2F%2Fexodus.desync.com%3A6969"],"infoHash":"6bfe84a86bc73c2d2905e116ba8305b6ca6d5a18","infoHashBuffer":{"type":"Buffer","data":[107,254,132,168,107,199,60,45,41,5,225,22,186,131,5,182,202,109,90,24]},"announce":[],"urlList":[]}}